# xmcd
#
# Track frame offsets: 
#        150
#        12942
#        35370
#        47325
#        58657
#        71672
#        84850
#        100062
#        113680
#        127805
#        141722
#        153452
#        169895
#        179945
#        195315
#        209515
#        232292
#        250217
#        266165
#        276807
#
# Disc length: 3978 seconds
#
# Revision: 4
# Processed by: cddbd v1.5.2PL0 Copyright (c) Steve Scherf et al.
# Submitted via: ExactAudioCopyFreeDBPlugin 1.0
#
DISCID=250f8814
DTITLE=Various Artist - Hi Times:  The Hi Records R&B Years [The Righ
DTITLE=t Stuff box set]
DYEAR=1995
DGENRE=Soul
TTITLE0=Darryl Carter - Looking Straight Ahead
TTITLE1=Gene Anderson and The Internationals - Your Love Must Be Voodoo,
TTITLE1=Parts 1 and 2
TTITLE2=Syl Johnson - Back for a Taste of Your Love
TTITLE3=Syl Johnson - Wind Blow Her Back My Way
TTITLE4=Otis Clay - If I Could Reach Out
TTITLE5=Emma Coffee - You Made Me What I Am
TTITLE6=Al Green - Let's Get Married
TTITLE7=Al Green - Sha La La (Make Me Happy)
TTITLE8=Al Green - L-O-V-E (Love)
TTITLE9=Syl Johnson - Let Yourself Go
TTITLE10=Syl Johnson - I Want to Take You Home (To See Mama)
TTITLE11=The Hi Rhythm Section - Superstar
TTITLE12=The Hi Rhythm Section - Moody (with Al Perkins)
TTITLE13=Veneice Stark - I Still Love You
TTITLE14=Rufus Thomas - Fried Chicken
TTITLE15=Al Green - Love and Happiness
TTITLE16=O.V. Wright - Into Something (Can't Shake Loose)
TTITLE17=O.V. Wright - Precious, Precious
TTITLE18=O.V. Wright - I Don't Do Windows
TTITLE19=Al Green - Belle
EXTD=
EXTT0=
EXTT1=
EXTT2=
EXTT3=
EXTT4=
EXTT5=
EXTT6=
EXTT7=
EXTT8=
EXTT9=
EXTT10=
EXTT11=
EXTT12=
EXTT13=
EXTT14=
EXTT15=
EXTT16=
EXTT17=
EXTT18=
EXTT19=
PLAYORDER=
